<svg xmlns="http://www.w3.org/2000/svg" fill="none" viewBox="0 0 14 14" id="Filetype-Audio--Streamline-wxNote">
  <desc>
    audio file (file + music note), derived from Streamline Core flat icons: https://streamlinehq.com
  </desc>
  <path fill="#69db7c" d="M2.5 0A1.5 1.5 0 0 0 1 1.5v11A1.5 1.5 0 0 0 2.5 14h9a1.5 1.5 0 0 0 1.5 -1.5v-8a0.5 0.5 0 0 0 -0.146 -0.354l-4 -4A0.5 0.5 0 0 0 8.5 0h-6Z"/>
  <g transform="translate(2.9 5.2) scale(0.5)">
    <path fill="#099268" fill-rule="evenodd" clip-rule="evenodd" d="M6.44473 0.126343c-0.55228 0 -1 0.447715 -1 0.999997v6.58881c-0.36907 -0.14892 -0.77232 -0.2309 -1.19473 -0.2309 -1.76438 0 -3.1947 1.43032 -3.1947 3.19475 0 1.7643 1.43032 3.1947 3.1947 3.1947 1.76439 0 3.19471 -1.4304 3.19471 -3.1947 0 -0.0058 -0.00002 -0.0115 -0.00005 -0.0172 0.00005 -0.0041 0.00007 -0.0081 0.00007 -0.0122V2.23056c0.25345 0.0535 0.50184 0.12733 0.74232 0.22085 0.55063 0.21413 1.04702 0.52649 1.4623 0.91638 0.41515 0.38977 0.74085 0.84905 0.96185 1.34983 0.2208 0.50059 0.3335 1.0347 0.3335 1.5724 0 0.55228 0.4477 1 1 1s1 -0.44772 1 -1c0 -0.8185 -0.1718 -1.62733 -0.5037 -2.37971 -0.3319 -0.75219 -0.8164 -1.43139 -1.4227 -2.00061C10.4121 1.34061 9.69588 0.892263 8.91193 0.587398 8.12805 0.282559 7.28987 0.126343 6.44473 0.126343Z"/>
  </g>
</svg>
