<svg xmlns="http://www.w3.org/2000/svg" fill="none" viewBox="0 0 14 14" id="Open--Streamline-wxNote">
  <desc>
    open file (opened folder), derived from Streamline Core flat icons: https://streamlinehq.com
  </desc>
  <path fill="#69db7c" d="M6.127 0.805A1.5 1.5 0 0 0 5.183 0.5H1.5A1.5 1.5 0 0 0 0 2v10a1.5 1.5 0 0 0 1.5 1.5h11A1.5 1.5 0 0 0 14 12V4a1.5 1.5 0 0 0 -1.5 -1.5H6.89l-0.215 -0.86a1.502 1.502 0 0 0 -0.548 -0.835Z"/>
  <path fill="#099268" d="M1.62 13.5c-0.62 0 -0.72 -0.4 -0.57 -0.84l1.75 -5.16c0.15 -0.44 0.5 -0.75 1 -0.75h9.1c0.6 0 0.85 0.4 0.7 0.85l-1.75 5.15c-0.17 0.45 -0.55 0.75 -1.05 0.75H1.62Z"/>
</svg>
