<svg xmlns="http://www.w3.org/2000/svg" fill="none" viewBox="0 0 14 14" id="Zoom-Out--Streamline-wxNote">
  <desc>
    zoom-out, derived from Streamline Core flat icons: https://streamlinehq.com
  </desc>
  <path fill="#69db7c" d="M1 6a5 5 0 1 0 10 0A5 5 0 1 0 1 6"/>
    <rect x="3.9" y="5.3" width="4.2" height="1.4" rx="0.7" fill="#099268"/>
  <path fill="#099268" fill-rule="evenodd" clip-rule="evenodd" d="M2 6c0 -2.20914 1.79086 -4 4 -4s4 1.79086 4 4 -1.79086 4 -4 4 -4 -1.79086 -4 -4Zm4 -6C2.68629 0 0 2.68629 0 6s2.68629 6 6 6c1.29578 0 2.49562 -0.4108 3.47642 -1.1092l2.81648 2.8165c0.3905 0.3905 1.0237 0.3905 1.4142 0 0.3905 -0.3905 0.3905 -1.0237 0 -1.4142l-2.8164 -2.81645C11.5892 8.49581 12 7.29588 12 6c0 -3.31371 -2.68629 -6 -6 -6Z"/>
</svg>
